<?xml version="1.0" encoding="utf-8"?>
<!-- Generator: Adobe Illustrator 16.0.0, SVG Export Plug-In . SVG Version: 6.00 Build 0)  -->
<!DOCTYPE svg PUBLIC "-//W3C//DTD SVG 1.1//EN" "http://www.w3.org/Graphics/SVG/1.1/DTD/svg11.dtd">
<svg version="1.1" id="图层_1" xmlns="http://www.w3.org/2000/svg" xmlns:xlink="http://www.w3.org/1999/xlink" x="0px" y="0px"
	 width="600px" height="600px" viewBox="0 0 600 600" enable-background="new 0 0 600 600" xml:space="preserve">
<g>
	<path fill="#FFFFFF" d="M301.313,104.884c0,0-33.901,1.414-50.727,3.741c-8.393,1.161-16.793,2.357-25.105,3.964
		c-18.9,3.656-37.579,8.287-55.798,14.532c-22.535,7.724-44.652,16.462-65.292,28.549c-1.273,0.744-2.51,1.743-4.464,1.055
		c0.636-2.763,2.903-4.161,4.813-5.631c30.217-23.239,63.79-40.161,99.652-52.742c6.292-2.207,12.597-4.381,18.933-6.454
		c2.961-0.969,3.048-2.048,1.061-4.404c-3.061-3.624-6.389-4.455-11.181-3.979c-17.711,1.767-35.109,4.967-52.079,10.268
		c-30.2,9.436-58.136,23.38-83.468,42.441c-4.807,3.619-6.291,9.179-8.731,14.131c-11.613,23.556-21.194,47.974-29.803,72.75
		c-7.56,21.754-13.772,43.931-19.164,66.331C13.53,316.145,8.854,343.16,5.863,370.45c-2.364,21.559-3.647,43.201-3.087,64.898
		c0.156,6.1,4.821,10.004,8.356,14.205c18.395,21.853,41.072,37.989,67.216,49.276c15.631,6.748,31.858,11.46,48.739,14.128
		c8.997,1.423,18.05,2.092,27.05,3.316c3.722,0.503,6.442-0.655,8.966-3.846c8.935-11.281,18.204-22.303,27.469-33.316
		c2.566-3.054,1.249-3.789-1.815-4.735c-29.628-9.113-55.895-23.993-77.829-46.09c-3.514-3.536-6.576-7.524-9.796-11.35
		c-0.743-0.885-1.921-1.949-0.971-3.177c1.061-1.363,2.22-0.206,3.166,0.44c26.39,18.104,55.773,29.869,85.834,40.023
		c13.466,4.548,27.356,7.696,41.326,10.593c23.405,4.846,46.984,7.03,70.827,6.96v0.001c23.851,0.072,47.437-2.11,70.849-6.96
		c13.969-2.896,27.858-6.045,41.325-10.594c30.061-10.153,59.445-21.918,85.835-40.021c0.944-0.647,2.104-1.804,3.163-0.438
		c0.953,1.227-0.227,2.289-0.968,3.173c-3.222,3.828-6.283,7.813-9.795,11.351c-21.935,22.097-48.204,36.979-77.832,46.091
		c-3.063,0.946-4.381,1.68-1.814,4.734c9.267,11.018,18.532,22.035,27.468,33.316c2.525,3.191,5.245,4.351,8.966,3.845
		c9.002-1.225,18.055-1.892,27.051-3.315c16.882-2.668,33.105-7.38,48.74-14.129c26.143-11.286,48.821-27.423,67.215-49.273
		c3.535-4.2,8.198-8.107,8.355-14.203c0.557-21.703-0.725-43.345-3.088-64.902c-2.99-27.29-7.667-54.306-14.097-81.015
		c-5.393-22.399-11.604-44.576-19.165-66.329c-8.608-24.777-18.187-49.195-29.803-72.751c-2.44-4.952-3.924-10.512-8.732-14.131
		c-25.331-19.062-53.269-33.006-83.466-42.442c-16.97-5.301-34.365-8.501-52.08-10.267c-4.79-0.477-8.121,0.353-11.183,3.978
		c-1.989,2.356-1.898,3.434,1.063,4.404c6.334,2.073,12.64,4.247,18.933,6.453c35.862,12.583,69.435,29.504,99.652,52.743
		c1.909,1.469,4.176,2.868,4.812,5.632c-1.954,0.687-3.192-0.311-4.464-1.056c-20.64-12.087-42.759-20.826-65.29-28.549
		c-18.22-6.245-36.9-10.875-55.799-14.531c-8.312-1.607-16.714-2.803-25.104-3.965c-16.827-2.327-50.729-3.74-50.729-3.74
		s-14.617,0.425,0-0.002C316.031,105.111,301.322,104.884,301.313,104.884 M262.202,351.318c-6.952,23.594-31.491,44-59.862,38.966
		c-27.578-4.892-47.697-32.324-45.451-61.967c1.076-14.212,6.82-26.621,16.894-36.849c13.505-13.714,30.048-18.95,48.601-14.848
		c24.943,5.511,42.475,28.91,42.637,56.423C264.686,338.268,264.109,344.851,262.202,351.318z M400.306,390.285
		c-28.374,5.033-52.911-15.371-59.862-38.966c-1.908-6.468-2.484-13.052-2.819-18.273c0.162-27.514,17.693-50.912,42.636-56.424
		c18.553-4.1,35.097,1.135,48.602,14.85c10.071,10.227,15.817,22.637,16.893,36.849C448.002,357.96,427.883,385.393,400.306,390.285
		z"/>
</g>
</svg>
