<svg width="22" height="22" viewBox="0 0 22 22" fill="none" xmlns="http://www.w3.org/2000/svg">
<path fill-rule="evenodd" clip-rule="evenodd" d="M12.9911 16.246C13.7315 16.1517 14.4001 16.0342 15.0417 15.7822C16.6467 15.1521 17.5744 13.967 17.8626 12.2305C18.0372 11.1779 18.095 10.1372 17.7424 9.1089C17.592 8.67077 17.3751 8.26844 17.0832 7.91754C16.9361 7.74067 16.8898 7.59992 16.9682 7.3645C17.2575 6.49574 17.109 5.64462 16.8111 4.80724C16.7371 4.59922 16.5696 4.62586 16.4162 4.6352C15.8235 4.67123 15.3023 4.94054 14.7832 5.1981C14.4239 5.37644 14.1074 5.70681 13.736 5.7811C13.3641 5.85557 12.9608 5.63409 12.5632 5.57209C11.1773 5.35596 9.80909 5.41892 8.45422 5.77939C8.30146 5.82002 8.19057 5.79508 8.06532 5.70715C7.46051 5.28234 6.79646 4.97852 6.10375 4.74428C5.3356 4.4845 5.19424 4.57571 5.00173 5.36739C4.82542 6.09246 4.8197 6.80976 5.06996 7.51805C5.10657 7.62177 5.09484 7.68909 5.02315 7.77172C3.95672 8.99901 3.85825 10.4611 4.08114 11.9888C4.21982 12.9391 4.51579 13.8379 5.15121 14.5692C5.81226 15.3298 6.67565 15.7513 7.62139 16.0059C8.04515 16.1201 8.47753 16.1946 8.95992 16.2338C8.74733 16.5482 8.52412 16.8163 8.43312 17.1585C8.41849 17.2135 8.37426 17.2673 8.37759 17.3193C8.40644 17.7696 8.09948 17.8671 7.76843 17.949C6.5383 18.2531 5.8171 17.9628 5.12771 16.857C4.79306 16.3204 4.34996 15.9385 3.76334 15.73C3.5735 15.6626 3.37965 15.6407 3.18373 15.6711C2.91707 15.7123 2.86325 15.846 3.02884 16.0589C3.10363 16.1548 3.19121 16.2522 3.29356 16.3116C3.89588 16.6611 4.25477 17.2232 4.4885 17.8532C4.83193 18.7795 5.46754 19.2604 6.40396 19.3791C6.95393 19.4488 7.50247 19.4751 8.04893 19.3675C8.21434 19.3351 8.26134 19.38 8.26023 19.5494C8.25636 20.1536 8.2691 20.7578 8.26647 21.362C8.26425 21.8721 7.93717 22.1136 7.46148 21.9485C6.02134 21.4484 4.72737 20.6905 3.61011 19.6242C2.24786 18.3242 1.22307 16.7931 0.613366 14.9831C-0.0914444 12.8907 -0.187007 10.7613 0.317213 8.61189C0.917781 6.05197 2.25321 3.96626 4.2718 2.35228C5.70114 1.20947 7.31051 0.467231 9.10908 0.167389C11.7396 -0.271115 14.2257 0.14179 16.5291 1.52604C18.7992 2.89034 20.4053 4.85488 21.3143 7.39285C22.1531 9.73456 22.2237 12.1224 21.5186 14.5058C20.6282 17.5154 18.796 19.7602 16.1076 21.2632C15.608 21.5426 15.079 21.7619 14.5376 21.945C14.0612 22.106 13.7393 21.8767 13.7359 21.3625C13.7294 20.4033 13.7371 19.4442 13.7327 18.4851C13.7287 17.6762 13.6329 16.8946 12.9911 16.246Z" fill="#FF781D"/>
</svg>
