<?xml version="1.0" encoding="utf-8"?>
<!-- Generator: Adobe Illustrator 16.0.0, SVG Export Plug-In . SVG Version: 6.00 Build 0)  -->
<!DOCTYPE svg PUBLIC "-//W3C//DTD SVG 1.1//EN" "http://www.w3.org/Graphics/SVG/1.1/DTD/svg11.dtd">
<svg version="1.1" id="图层_1" xmlns="http://www.w3.org/2000/svg" xmlns:xlink="http://www.w3.org/1999/xlink" x="0px" y="0px"
	 width="600px" height="600px" viewBox="0 0 600 600" enable-background="new 0 0 600 600" xml:space="preserve">
<g>
	<path fill="#F2C07B" d="M494.463,292.909c-38.535-55.277-77.62-110.173-116.671-165.089c-6.146-8.643-11.381-17.313-9.917-28.465
		c-0.001-0.001-0.002-0.002-0.002-0.003c-23.314-0.163-46.632-0.326-69.947-0.489c0-0.081,0-0.162,0-0.243
		c-23.764,0.166-47.53,0.332-71.295,0.498c0,0,0,0.001,0,0.001c1.462,11.153-3.772,19.823-9.917,28.466
		c-39.052,54.916-78.136,109.812-116.672,165.089c-4.479,6.424-9.42,11.208-15.463,14.025c0.144,7.556,0.489,16.316,0.228,23.581
		c-0.953,26.526-0.77,53.124-0.187,79.673c0.943,43.04,22.114,69.348,61.255,77.32c14.303,3.774,40.902,1.261,55.848,1.934
		c-0.672-0.635-1.339-1.279-1.998-1.938c-10.894-10.889-15.817-20.908-22.271-29.585c-36.338-48.829-26.301-111.521,22.764-140.539
		c30.112-17.811,62.889-24.696,97.709-22.17c0,0.05,0,0.1,0,0.149c34.318-2.253,66.639,4.677,96.362,22.257
		c49.063,29.019,59.102,91.71,22.765,140.539c-6.455,8.676-11.378,18.697-22.271,29.585c-0.659,0.658-1.325,1.303-1.997,1.938
		c14.945-0.673,41.543,1.841,55.845-1.935c39.141-7.972,60.313-34.28,61.255-77.32c0.583-26.549,0.766-53.146-0.187-79.673
		c-0.262-7.265,0.084-16.024,0.228-23.58C503.884,304.117,498.942,299.333,494.463,292.909z M244.255,276.235
		c-15.327-0.09-18.024-12.338-17.599-25.188c-0.46-13.428,1.226-26.799,18.207-26.707c15.347,0.084,17.67,12.252,17.625,25.17
		C262.443,262.903,261.295,276.335,244.255,276.235z M350.249,276.471c-17.04,0.1-18.188-13.331-18.233-26.725
		c-0.043-12.918,2.279-25.086,17.627-25.17c16.979-0.092,18.666,13.278,18.207,26.707
		C368.273,264.133,365.577,276.381,350.249,276.471z"/>
	<path fill="#FEDEA7" d="M417.053,457.92c36.337-48.829,26.299-111.521-22.765-140.539c-29.724-17.58-62.044-24.51-96.362-22.257
		c0-0.05,0-0.1,0-0.149c-34.82-2.526-67.597,4.36-97.709,22.17c-49.065,29.019-59.102,91.71-22.764,140.539
		c6.454,8.677,11.377,18.696,22.271,29.585c0.659,0.659,1.326,1.304,1.998,1.938c22.053,20.839,50.612,28.992,50.612,28.992v-0.001
		c-11.693-20.48-6.757-43.107-8.361-64.889c-6.585-0.625-14.965,0.092-15.649-8.773c-0.561-7.272,6.322-8.937,12.517-9.888
		c29.605-4.545,41.957-24.951,47.552-51.683c1.352-6.456-2.437-16.138,9.533-16.592c0,0.113,0,0.226,0,0.339
		c10.32,1.121,6.887,10.289,8.186,16.488c5.596,26.731,17.947,47.138,47.552,51.682c6.194,0.952,13.079,2.616,12.517,9.889
		c-0.684,8.865-9.063,8.148-15.647,8.773c-1.605,21.782,3.331,44.408-8.362,64.888c0,0,0,0.001,0,0.002
		c0,0,28.561-8.153,50.615-28.992c0.672-0.635,1.338-1.279,1.997-1.938C405.675,476.617,410.598,466.596,417.053,457.92z
		 M327.645,339.891c-7.375,11.088-16.725,20.419-31.065,22.259c0-0.152,0-0.305,0-0.457c-13.576-2.239-22.58-11.304-29.719-22.037
		c-9.49-14.268-3.569-25.774,13.511-27.271c5.794-0.51,11.701,0.256,17.555,0.439c0,0.06,0,0.119,0,0.179
		c5.411-0.241,10.857-0.853,16.207-0.382C331.214,314.118,337.134,325.624,327.645,339.891z"/>
	<path fill="#C90447" d="M350.532,453.545c-23.114-4.75-40.054-18.306-53.365-37.034c-13.285,18.607-30.177,32.07-53.194,36.799
		c1.604,21.781-3.332,44.408,8.361,64.889c0.001,0.001,0.002,0.003,0.003,0.005c12.063,12.954,24.963,24.197,44.241,22.354
		c0,0.031,0,0.063,0,0.094c20.031,2.514,33.247-8.958,45.589-22.214c0.001-0.002,0.002-0.004,0.003-0.005
		C353.863,497.953,348.927,475.327,350.532,453.545z"/>
	<path fill="#312F2E" d="M297.167,416.511c13.312,18.729,30.251,32.284,53.365,37.034c6.585-0.625,14.964,0.092,15.647-8.773
		c0.563-7.272-6.322-8.937-12.517-9.889c-29.604-4.544-41.956-24.95-47.552-51.682c-1.299-6.199,2.135-15.367-8.186-16.488
		c0-0.113,0-0.226,0-0.339c-11.97,0.454-8.181,10.136-9.533,16.592c-5.595,26.731-17.947,47.138-47.552,51.683
		c-6.195,0.951-13.078,2.615-12.517,9.888c0.684,8.865,9.064,8.148,15.649,8.773C266.99,448.581,283.882,435.118,297.167,416.511z"
		/>
	<path fill="#302F2E" d="M314.133,312.62c-5.35-0.471-10.796,0.141-16.207,0.382c0-0.06,0-0.119,0-0.179
		c-5.854-0.184-11.761-0.949-17.555-0.439c-17.08,1.497-23.001,13.004-13.511,27.271c7.139,10.733,16.143,19.798,29.719,22.037
		c0,0.152,0,0.305,0,0.457c14.341-1.84,23.69-11.171,31.065-22.259C337.134,325.624,331.214,314.118,314.133,312.62z"/>
	<path fill="#6C4331" d="M540.989,162.177c-1.33-44.404-34.622-76.461-78.81-77.52c-22.276-0.533-44.59,0.325-66.865-0.272
		c-12.513-0.336-21.586,3.938-27.439,14.967c0,0.001,0,0.002,0,0.003c-1.464,11.152,3.771,19.822,9.917,28.465
		c39.051,54.916,78.136,109.812,116.671,165.089c4.479,6.424,9.421,11.208,15.463,14.025c3.99,1.859,8.455,2.87,13.601,2.899
		c13.738-4.008,17.882-14.089,17.828-27.29C541.192,242.42,542.191,202.266,540.989,162.177z"/>
	<path fill="#6C4331" d="M100.041,292.674c38.536-55.277,77.62-110.173,116.672-165.089c6.146-8.643,11.38-17.313,9.917-28.466
		c0-0.001,0-0.002,0-0.003c-5.854-11.029-14.927-15.302-27.44-14.967c-22.276,0.596-44.589-0.261-66.866,0.272
		c-44.187,1.059-77.478,33.116-78.808,77.52c-1.203,40.089-0.204,80.244-0.366,120.367c-0.054,13.202,4.09,23.282,17.828,27.291
		c5.146-0.028,9.611-1.039,13.6-2.899C90.621,303.882,95.562,299.098,100.041,292.674z"/>
	<path fill="#32302E" d="M244.863,224.34c-16.981-0.092-18.667,13.279-18.207,26.707c-0.425,12.85,2.271,25.098,17.599,25.188
		c17.04,0.1,18.188-13.332,18.233-26.725C262.533,236.592,260.21,224.424,244.863,224.34z"/>
	<path fill="#32302E" d="M349.643,224.576c-15.348,0.084-17.67,12.252-17.627,25.17c0.045,13.394,1.193,26.825,18.233,26.725
		c15.328-0.09,18.024-12.338,17.601-25.188C368.309,237.854,366.622,224.484,349.643,224.576z"/>
</g>
</svg>
