<svg width="22" height="18" viewBox="0 0 22 18" fill="none" xmlns="http://www.w3.org/2000/svg">
<path fill-rule="evenodd" clip-rule="evenodd" d="M7.65029 17.9976C7.15843 17.9976 6.66657 17.9976 6.17471 17.9976C6.11076 17.9843 6.04733 17.9635 5.98277 17.9589C4.00053 17.818 2.14988 17.248 0.427824 16.2581C0.295846 16.1822 0.167034 16.1008 0 15.9997C2.48512 16.2187 4.67865 15.5993 6.62314 14.0928C5.67382 14.0262 4.81024 13.7436 4.04834 13.1795C3.28315 12.613 2.75003 11.8789 2.43262 10.9637C3.55505 11.0364 4.13386 11.0009 4.43946 10.8299C3.37917 10.5869 2.5082 10.0691 1.83685 9.23969C1.16724 8.41237 0.834693 7.46444 0.82593 6.36961C1.47888 6.70094 2.12758 6.89631 2.83581 6.89219C1.88983 6.19312 1.24707 5.29517 0.981423 4.15109C0.715904 3.00762 0.880552 1.92134 1.45298 0.874837C3.93151 3.77021 7.03643 5.35547 10.8307 5.6111C10.7987 5.31226 10.7607 5.05759 10.7457 4.80153C10.6177 2.61676 12.0696 0.661597 14.2003 0.150646C14.4612 0.0880844 14.7281 0.0512067 14.9923 0.00244141C15.1722 0.00244141 15.3522 0.00244141 15.5321 0.00244141C15.5838 0.0156306 15.6348 0.0357181 15.6873 0.0409677C16.7656 0.149041 17.6916 0.582896 18.4626 1.34318C18.5499 1.42935 18.6266 1.45082 18.7477 1.42427C19.6201 1.23264 20.4469 0.922691 21.2295 0.493044C21.2836 0.463282 21.3383 0.434518 21.4375 0.381284C21.0619 1.45013 20.4121 2.23441 19.5174 2.83538C20.3752 2.76532 21.1815 2.52895 22 2.19948C21.9677 2.25896 21.9584 2.28087 21.945 2.29988C21.3914 3.08524 20.7348 3.77186 19.964 4.34607C19.8464 4.43366 19.805 4.52377 19.7996 4.67207C19.7738 5.37205 19.7802 6.07836 19.6839 6.76971C19.3305 9.30503 18.3391 11.5734 16.6888 13.5339C14.5698 16.0512 11.8568 17.4864 8.59362 17.8868C8.27938 17.9253 7.96475 17.9607 7.65029 17.9976Z" fill="white"/>
</svg>
